<?xml version="1.0" encoding="UTF-8"?>
<svg version="1.0" viewBox="0 0 956.69 807.52" xmlns="http://www.w3.org/2000/svg" xmlnsXlink="http://www.w3.org/2000/svg">
<path d="m258.44 761.07c-32.914 0-42.421-32.882-42.421-56.762 0-24.606 10.013-57.109 43.053-57.109 32.756 0 42.295 33.103 42.137 56.383 0 10.361-2.7796 57.488-42.769 57.488m0.63167-124.52c-38.441 0-55.909 31.966-55.909 67.659 0 22.743 7.0439 39.705 16.141 50.318 10.645 12.572 23.754 17.499 39.768 17.499 10.582 0 26.186-1.9268 38.789-16.773 10.455-12.35 16.362-32.219 16.552-51.834 0.09472-29.123-12.477-66.87-55.341-66.87m-131.72 60.773h-79.757v-57.552h-12.161v129.1h12.161v-60.805h79.757v60.805h12.193v-129.1h-12.193v57.552zm764.15 2.0215c-4.0116-1.453-22.458-6.2226-26.122-7.2967-7.2651-2.2426-21.7-6.8227-21.7-22.553 0-17.12 16.425-22.995 30.292-22.995 11.182 0 21.542 3.98 27.955 12.919 2.8428 3.9168 4.3274 8.2757 5.4329 11.592l11.34-6.2542c-2.8428-7.1388-11.34-28.27-44.348-28.27-20.089 0-42.453 8.1809-42.453 33.577 0 23.974 20.595 30.671 38.789 35.472 16.899 4.359 24.448 6.2227 30.355 11.15 3.4746 2.6217 7.8336 8.0231 7.8336 17.341 0 13.614-10.961 27.354-35.788 27.354-13.298 0-26.659-4.6117-32.472-16.583-2.4006-4.5484-2.906-9.9182-3.0955-15.004l-12.256 6.4438c2.2111 11.845 7.7389 21.29 17.499 27.891 6.7597 4.3906 16.646 7.8968 30.324 7.8968 32.914 0 48.17-20.5 48.17-38.599 0-24.448-22.774-31.935-29.755-34.082m-348.66 9.0339h65.322v-11.34h-65.322v-45.864h72.145v-11.403h-84.337v129.1h88.949v-11.403h-76.756v-49.086zm219.53-657.2-80.199 0.18962-101.55 236.84-119.68-252.73-118.55 252.73-99.468-237.03h-80.421l178.69 413.47 120.13-260.21 118.36 261.07 182.7-414.33zm-396.92 599.3h40.716v118.39h12.161v-118.39h40.842v-10.708h-93.719v10.708zm343.89-10.708h-12.54v129.1h83.832v-11.403h-71.292v-117.69z" fill="#979082"/>
</svg>
